<svg xmlns="http://www.w3.org/2000/svg" version="1.1" xmlns:xlink="http://www.w3.org/1999/xlink" xmlns:svgjs="http://svgjs.dev/svgjs" width="2000" height="454" viewBox="0 0 2000 454"><g transform="matrix(1,0,0,1,-1.2112696095522324,-1.0433230225370664)"><svg viewBox="0 0 396 90" data-background-color="#ffffff" preserveAspectRatio="xMidYMid meet" height="454" width="2000" xmlns="http://www.w3.org/2000/svg" xmlns:xlink="http://www.w3.org/1999/xlink"><g id="tight-bounds" transform="matrix(1,0,0,1,0.24008861730862918,0.20687278372085416)"><svg viewBox="0 0 395.52 89.58627636553453" height="89.58627636553453" width="395.52"><g><svg viewBox="0 0 395.52 89.58627636553453" height="89.58627636553453" width="395.52"><g><svg viewBox="0 0 395.52 89.58627636553453" height="89.58627636553453" width="395.52"><g id="textblocktransform"><svg viewBox="0 0 395.52 89.58627636553453" height="89.58627636553453" width="395.52" id="textblock"><g><svg viewBox="0 0 395.52 89.58627636553453" height="89.58627636553453" width="395.52"><path d="M394.594 19.215C392.735 9.916 387.435 7.33 387.435 7.33 371.165-2.248 350.86-0.183 332.619 1.193 300.414 1.249 268.339 3.295 236.208 4.392 168.767 4.559 100.749 1.807 33.643 8.595 27.339 10.678-6.54 9.004 1.121 20.405 3.129 25.147 10.456 30.411 10.232 34.763 11.236 35.525 12.631 33.777 13.226 34.874 15.309 37.831 18.711 36.436 21.501 38.185 17.614 42.853 20.403 46.74 23.062 50.813 18.377 51.873 12.371 51.371 9.675 54.886 9.396 57.434 7.89 56.95 6.235 56.838 5.026 56.764 2.59 57.043 2.999 57.843 4.394 60.577-1.594 62.157 2.162 64.836-0.422 67.737 3.948 70.248 3.353 73.391 3.278 74.023 3.687 74.562 4.338 74.711 7.22 75.511 3.018 77.073 3.464 78.765 33.029 90.333 65.104 82.336 95.394 87.655 103.259 83.936 97.346 88.976 100.489 88.195 102.943 87.283 104.728 91.059 107.499 88.92 107.927 88.306 107.276 86.856 108.8 87.135 109.6 87.283 110.307 87.246 110.418 86.391 110.586 85.107 109.117 85.907 108.726 85.238 112.947 81.853 111.906 89.906 115.866 89.571 115.68 88.585 114.528 87.172 116.889 87.358 119.232 85.944 119.306 84.773 121.389 87.953 121.463 88.641 121.835 89.125 122.43 89.459 128.938 86 135.409 90.687 142.233 89.125 146.417 87.414 150.433 90.055 154.672 89.404 156.16 88.883 157.666 87.953 159.098 89.515 176.632 89.85 195.319 88.455 211.943 89.571 256.364 87.488 303.836 90.426 350.674 87.674 361.719 86.614 373.192 85.107 383.958 83.899 383.958 83.899 392.679 80.588 392.679 65.71S394.538 52.691 394.817 40.844C395.096 28.997 396.398 28.514 394.538 19.215Z" opacity="1" fill="#0080ff" data-fill-palette-color="tertiary"></path><g transform="matrix(1,0,0,1,55.76832,26.230666666666668)"><svg width="283.98335999999995" viewBox="4.58 -33.750322259343996 261.6 34.2110128670788" height="37.1249430322012" data-palette-color="#ffffff"><path d="M4.58-33.27L13.2-33.27Q25.66-33.27 25.66-23.56L25.66-23.56Q25.66-18.53 22.21-15.8 18.76-13.07 12.36-13.07L12.36-13.07 8.44-13.07 8.44 0 4.58 0 4.58-33.27ZM12.77-29.9L8.44-29.9 8.44-16.41 11.93-16.41Q17.04-16.41 19.36-18.05L19.36-18.05Q21.66-19.72 21.66-23.22 21.66-26.72 19.49-28.31 17.32-29.9 12.77-29.9L12.77-29.9ZM43.43-25.38L43.43-25.38Q45.14-25.38 46.41-25.13L46.41-25.13 45.9-21.61Q44.41-21.94 43.17-21.94L43.17-21.94Q40.14-21.94 37.99-19.49 35.84-17.04 35.84-13.37L35.84-13.37 35.84 0 32.05 0 32.05-24.92 35.18-24.92 35.61-20.32 35.79-20.32Q37.18-22.78 39.14-24.08 41.1-25.38 43.43-25.38ZM51.8-21.99Q54.87-25.38 60.18-25.38 65.49-25.38 68.57-21.9 71.66-18.43 71.66-12.42 71.66-6.42 68.57-2.96L68.57-2.96Q65.49 0.46 60.11 0.46L60.11 0.46Q55.03 0.51 51.84-3.06 48.66-6.62 48.73-12.49L48.73-12.49Q48.73-18.6 51.8-21.99ZM60.13-22.17L60.13-22.17Q52.65-22.17 52.65-12.49L52.65-12.49Q52.65-7.71 54.56-5.21 56.47-2.7 60.18-2.7 63.9-2.7 65.82-5.19 67.74-7.68 67.74-12.47 67.74-17.26 65.82-19.72 63.9-22.17 60.13-22.17ZM106.51-30.28L106.51-30.28Q101.03-30.28 97.85-26.62 94.68-22.95 94.68-16.52 94.68-10.09 97.74-6.53 100.8-2.98 106.46-2.98L106.46-2.98Q110-2.98 114.42-4.22L114.42-4.22 114.42-0.83Q110.96 0.46 105.88 0.46L105.88 0.46Q98.52 0.46 94.53-3.99L94.53-3.99Q90.54-8.49 90.54-16.68L90.54-16.68Q90.51-20.48 91.64-23.67 92.76-26.87 94.83-29.1 96.91-31.32 99.91-32.55 102.92-33.77 106.56-33.75L106.56-33.75Q111.85-33.75 115.71-31.83L115.71-31.83 114.07-28.51Q110.35-30.28 106.51-30.28ZM122.78-21.99Q125.85-25.38 131.16-25.38 136.46-25.38 139.55-21.9 142.63-18.43 142.63-12.42 142.63-6.42 139.55-2.96L139.55-2.96Q136.46 0.46 131.08 0.46L131.08 0.46Q126 0.51 122.81-3.06 119.63-6.62 119.7-12.49L119.7-12.49Q119.7-18.6 122.78-21.99ZM131.1-22.17L131.1-22.17Q123.62-22.17 123.62-12.49L123.62-12.49Q123.62-7.71 125.53-5.21 127.44-2.7 131.16-2.7 134.87-2.7 136.79-5.19 138.71-7.68 138.71-12.47 138.71-17.26 136.79-19.72 134.87-22.17 131.1-22.17ZM170.08-16.25L170.08 0 166.29 0 166.29-16.13Q166.29-19.21 164.9-20.69 163.51-22.17 160.58-22.17L160.58-22.17Q156.66-22.17 154.84-20.06 153.02-17.95 153.02-13.07L153.02-13.07 153.02 0 149.23 0 149.23-24.92 152.31-24.92 152.92-21.51 153.09-21.51Q154.26-23.33 156.36-24.36 158.45-25.38 161.03-25.38L161.03-25.38Q165.58-25.38 167.83-23.18 170.08-20.98 170.08-16.25L170.08-16.25ZM198.67-16.25L198.67 0 194.88 0 194.88-16.13Q194.88-19.21 193.49-20.69 192.1-22.17 189.16-22.17L189.16-22.17Q185.25-22.17 183.43-20.06 181.61-17.95 181.61-13.07L181.61-13.07 181.61 0 177.81 0 177.81-24.92 180.9-24.92 181.5-21.51 181.68-21.51Q182.84-23.33 184.94-24.36 187.04-25.38 189.62-25.38L189.62-25.38Q194.17-25.38 196.42-23.18 198.67-20.98 198.67-16.25L198.67-16.25ZM216.94 0.46L216.94 0.46Q211.41 0.46 208.2-2.91L208.2-2.91Q205.01-6.27 205.01-12.29 205.01-18.3 207.97-21.84L207.97-21.84Q210.98-25.38 215.82-25.38 220.66-25.38 223.39-22.3 226.12-19.21 226.12-14.18L226.12-14.18 226.12-11.78 208.93-11.78Q209.05-7.41 211.15-5.12 213.25-2.83 217.21-2.83 221.16-2.83 225.03-4.52L225.03-4.52 225.03-1.16Q223.08-0.3 221.26 0.08 219.44 0.46 216.94 0.46ZM209.03-14.86L222.07-14.86Q222.07-18.43 220.48-20.32 218.89-22.22 215.92-22.22 212.95-22.22 211.14-20.27 209.33-18.33 209.03-14.86L209.03-14.86ZM242.52 0.46L242.52 0.46Q237.09 0.46 234.1-2.88L234.1-2.88Q231.15-6.22 231.15-12.37 231.15-18.53 234.15-21.97L234.15-21.97Q237.19-25.38 242.75-25.38L242.75-25.38Q244.57-25.38 246.36-25 248.16-24.62 249.17-24.09L249.17-24.09 248.01-20.88Q245.2-22.04 242.67-22.04L242.67-22.04Q235.06-22.04 235.06-12.36L235.06-12.36Q235.06-7.74 236.93-5.28 238.8-2.83 242.42-2.83L242.42-2.83Q245.5-2.83 248.81-4.2L248.81-4.2 248.81-0.83Q246.31 0.46 242.52 0.46ZM258.77-21.99L258.77-7.33Q258.77-5.08 259.82-3.87 260.87-2.65 262.7-2.65 264.54-2.65 266.18-3.11L266.18-3.11 266.18-0.23Q265.6 0.05 264.35 0.25 263.09 0.46 262.21 0.46L262.21 0.46Q254.98 0.46 254.98-7.15L254.98-7.15 254.98-21.99 251.42-21.99 251.42-23.81 254.98-25.38 256.57-30.71 258.77-30.71 258.77-24.92 266-24.92 266-21.99 258.77-21.99Z" opacity="1" transform="matrix(1,0,0,1,0,0)" fill="#ffffff" class="wordmark-text-0" data-fill-palette-color="quaternary" id="text-0"></path></svg></g></svg></g></svg></g></svg></g><g></g></svg></g><defs></defs></svg><rect width="395.52" height="89.58627636553453" fill="none" stroke="none" visibility="hidden"></rect></g></svg></g></svg>